<svg width="1300" height="562" viewBox="0 0 1300 562" fill="none" xmlns="http://www.w3.org/2000/svg">
    <path d="M65.0001 112.4L6.63181e-05 74.9333L65.0001 37.4667M65.0001 112.4L3.53959e-05 149.867L65 187.333M65.0001 112.4L130 149.867M65.0001 112.4L130 74.9333M130 149.867L65 187.333M130 149.867L195 187.333M130 149.867L195 112.4M65 187.333L130 224.8M65 187.333L5.73708e-05 224.8L65 262.267M195 187.333L130 224.8M195 187.333L260 224.8M195 187.333L260 149.867M130 224.8L195 262.267M130 224.8L65 262.267M260 224.8L195 262.267M260 224.8L325 262.267M260 224.8L325 187.333M195 262.267L260 299.733M195 262.267L130 299.733M325 262.267L260 299.733M325 262.267L390 299.733M325 262.267L390 224.8M260 299.733L325 337.2M260 299.733L195 337.2M390 299.733L325 337.2M390 299.733L455 337.2M390 299.733L455 262.267M325 337.2L390 374.667M325 337.2L260 374.667M455 337.2L390 374.667M455 337.2L520 374.667M455 337.2L520 299.733M390 374.667L455 412.133M390 374.667L325 412.133M520 374.667L455 412.133M520 374.667L585 412.133M520 374.667L585 337.2M455 412.133L520 449.6M455 412.133L390 449.6M585 412.133L520 449.6M585 412.133L650 374.667M520 449.6L455 487.067M65.0001 37.4667L130 74.9333M65.0001 37.4667L130 7.62261e-05L195 37.4667M780 449.6L845 487.067M780 449.6L715 412.133M780 449.6L845 412.133M845 487.067L910 524.533L975 487.067M845 487.067L910 449.6M130 74.9333L195 112.4M130 74.9333L195 37.4667M195 112.4L260 149.867M195 112.4L260 74.9334M260 149.867L325 187.333M260 149.867L325 112.4M325 187.333L390 224.8M325 187.333L390 149.867M390 224.8L455 262.267M390 224.8L455 187.333M455 262.267L520 299.733M455 262.267L520 224.8M520 299.733L585 337.2M520 299.733L585 262.267M585 337.2L650 374.667M585 337.2L650 299.733M650 374.667L715 412.133M650 374.667L715 337.2M715 412.133L780 374.667M845 412.133L910 449.6M845 412.133L780 374.667M845 412.133L910 374.667M910 449.6L975 487.067M910 449.6L975 412.133M195 37.4667L260 74.9334M195 37.4667L260 1.52452e-05L325 37.4667M975 487.067L1040 524.533L1105 487.067M975 487.067L1040 449.6M260 74.9334L325 112.4M260 74.9334L325 37.4667M325 112.4L390 149.867M325 112.4L390 74.9333M390 149.867L455 187.333M390 149.867L455 112.4M455 187.333L520 224.8M455 187.333L520 149.867M520 224.8L585 262.267M520 224.8L585 187.333M585 262.267L650 299.733M585 262.267L650 224.8M650 299.733L715 337.2M650 299.733L715 262.267M715 337.2L780 374.667M715 337.2L780 299.733M780 374.667L845 337.2M910 374.667L975 412.133M910 374.667L845 337.2M910 374.667L975 337.2M975 412.133L1040 449.6M975 412.133L1040 374.667M1040 449.6L1105 487.067M1040 449.6L1105 412.133M325 37.4667L390 74.9333M325 37.4667L390 7.62261e-05L455 37.4667M1105 487.067L1170 524.533M1105 487.067L1170 449.6M390 74.9333L455 112.4M390 74.9333L455 37.4667M1170 524.533L1235 562M1170 524.533L1235 487.067M455 112.4L520 149.867M455 112.4L520 74.9334M520 149.867L585 187.333M520 149.867L585 112.4M585 187.333L650 224.8M585 187.333L650 149.867M650 224.8L715 262.267M650 224.8L715 187.333M715 262.267L780 299.733M715 262.267L780 224.8M780 299.733L845 337.2M780 299.733L845 262.267M845 337.2L910 299.733M975 337.2L1040 374.667M975 337.2L910 299.733M975 337.2L1040 299.733M1040 374.667L1105 412.133M1040 374.667L1105 337.2M1105 412.133L1170 449.6M1105 412.133L1170 374.667M1170 449.6L1235 487.067M1170 449.6L1235 412.133M455 37.4667L520 74.9334M455 37.4667L520 1.52452e-05L585 37.4667M1235 487.067L1300 524.533M1235 487.067L1300 449.6L1235 412.133M520 74.9334L585 112.4M520 74.9334L585 37.4667M585 112.4L650 149.867M585 112.4L650 74.9333M650 149.867L715 187.333M650 149.867L715 112.4M715 187.333L780 224.8M715 187.333L780 149.867M780 224.8L845 262.267M780 224.8L845 187.333M845 262.267L910 299.733M845 262.267L910 224.8M910 299.733L975 262.267M1040 299.733L1105 337.2M1040 299.733L975 262.267M1040 299.733L1105 262.267M1105 337.2L1170 374.667M1105 337.2L1170 299.733M1170 374.667L1235 412.133M1170 374.667L1235 337.2M1235 412.133L1300 374.667L1235 337.2M585 37.4667L650 74.9333M585 37.4667L650 0L715 37.4667M650 74.9333L715 112.4M650 74.9333L715 37.4667M715 112.4L780 149.867M715 112.4L780 74.9333M780 149.867L845 187.333M780 149.867L845 112.4M845 187.333L910 224.8M845 187.333L910 149.867M910 224.8L975 262.267M910 224.8L975 187.333M975 262.267L1040 224.8M3.94762e-05 524.533L65 487.067M65 562L130 524.533M1105 262.267L1170 299.733M1105 262.267L1040 224.8M1105 262.267L1170 224.8M1170 299.733L1235 337.2M1170 299.733L1235 262.267M1235 337.2L1300 299.733L1235 262.267M715 37.4667L780 74.9333M715 37.4667L780 7.62261e-05L845 37.4667M780 74.9333L845 112.4M780 74.9333L845 37.4667M845 112.4L910 149.867M845 112.4L910 74.9334M910 149.867L975 187.333M910 149.867L975 112.4M975 187.333L1040 224.8M975 187.333L1040 149.867M1040 224.8L1105 187.333M65 487.067L4.39498e-05 449.6L65 412.133M65 487.067L130 524.533M65 487.067L130 449.6M130 524.533L195 487.067M1170 224.8L1235 262.267M1170 224.8L1105 187.333M1170 224.8L1235 187.333M1235 262.267L1300 224.8L1235 187.333M845 37.4667L910 74.9334M845 37.4667L910 1.52452e-05L975 37.4667M910 74.9334L975 112.4M910 74.9334L975 37.4667M975 112.4L1040 149.867M975 112.4L1040 74.9333M1040 149.867L1105 187.333M1040 149.867L1105 112.4M1105 187.333L1170 149.867M65 412.133L2.19749e-05 374.667L65 337.2M65 412.133L130 449.6M65 412.133L130 374.667M130 449.6L195 487.067M130 449.6L195 412.133M195 487.067L260 524.533L325 487.067M195 487.067L260 449.6M1235 187.333L1170 149.867M1235 187.333L1300 149.867L1235 112.4M975 37.4667L1040 74.9333M975 37.4667L1040 1.52452e-05L1105 37.4667M1040 74.9333L1105 112.4M1040 74.9333L1105 37.4667M1105 112.4L1170 149.867M1105 112.4L1170 74.9333M1170 149.867L1235 112.4M65 337.2L0 299.733L65 262.267M65 337.2L130 374.667M65 337.2L130 299.733M130 374.667L195 412.133M130 374.667L195 337.2M195 412.133L260 449.6M195 412.133L260 374.667M260 449.6L325 487.067M260 449.6L325 412.133M325 487.067L390 524.533L455 487.067M325 487.067L390 449.6M1105 37.4667L1170 74.9333M1105 37.4667L1170 7.62261e-05L1235 37.4667M1170 74.9333L1235 112.4M1170 74.9333L1235 37.4667M1235 112.4L1300 74.9334L1235 37.4667M65 262.267L130 299.733M130 299.733L195 337.2M195 337.2L260 374.667M260 374.667L325 412.133M325 412.133L390 449.6M390 449.6L455 487.067" stroke="url(#paint0_radial_111_17)" stroke-opacity="0.2" stroke-width="1.5" />
    <path d="M65.0001 112.4L6.63181e-05 74.9333L65.0001 37.4667M65.0001 112.4L3.53959e-05 149.867L65 187.333M65.0001 112.4L130 149.867M65.0001 112.4L130 74.9333M130 149.867L65 187.333M130 149.867L195 187.333M130 149.867L195 112.4M65 187.333L130 224.8M65 187.333L5.73708e-05 224.8L65 262.267M195 187.333L130 224.8M195 187.333L260 224.8M195 187.333L260 149.867M130 224.8L195 262.267M130 224.8L65 262.267M260 224.8L195 262.267M260 224.8L325 262.267M260 224.8L325 187.333M195 262.267L260 299.733M195 262.267L130 299.733M325 262.267L260 299.733M325 262.267L390 299.733M325 262.267L390 224.8M260 299.733L325 337.2M260 299.733L195 337.2M390 299.733L325 337.2M390 299.733L455 337.2M390 299.733L455 262.267M325 337.2L390 374.667M325 337.2L260 374.667M455 337.2L390 374.667M455 337.2L520 374.667M455 337.2L520 299.733M390 374.667L455 412.133M390 374.667L325 412.133M520 374.667L455 412.133M520 374.667L585 412.133M520 374.667L585 337.2M455 412.133L520 449.6M455 412.133L390 449.6M585 412.133L520 449.6M585 412.133L650 374.667M520 449.6L455 487.067M65.0001 37.4667L130 74.9333M65.0001 37.4667L130 7.62261e-05L195 37.4667M780 449.6L845 487.067M780 449.6L715 412.133M780 449.6L845 412.133M845 487.067L910 524.533L975 487.067M845 487.067L910 449.6M130 74.9333L195 112.4M130 74.9333L195 37.4667M195 112.4L260 149.867M195 112.4L260 74.9334M260 149.867L325 187.333M260 149.867L325 112.4M325 187.333L390 224.8M325 187.333L390 149.867M390 224.8L455 262.267M390 224.8L455 187.333M455 262.267L520 299.733M455 262.267L520 224.8M520 299.733L585 337.2M520 299.733L585 262.267M585 337.2L650 374.667M585 337.2L650 299.733M650 374.667L715 412.133M650 374.667L715 337.2M715 412.133L780 374.667M845 412.133L910 449.6M845 412.133L780 374.667M845 412.133L910 374.667M910 449.6L975 487.067M910 449.6L975 412.133M195 37.4667L260 74.9334M195 37.4667L260 1.52452e-05L325 37.4667M975 487.067L1040 524.533L1105 487.067M975 487.067L1040 449.6M260 74.9334L325 112.4M260 74.9334L325 37.4667M325 112.4L390 149.867M325 112.4L390 74.9333M390 149.867L455 187.333M390 149.867L455 112.4M455 187.333L520 224.8M455 187.333L520 149.867M520 224.8L585 262.267M520 224.8L585 187.333M585 262.267L650 299.733M585 262.267L650 224.8M650 299.733L715 337.2M650 299.733L715 262.267M715 337.2L780 374.667M715 337.2L780 299.733M780 374.667L845 337.2M910 374.667L975 412.133M910 374.667L845 337.2M910 374.667L975 337.2M975 412.133L1040 449.6M975 412.133L1040 374.667M1040 449.6L1105 487.067M1040 449.6L1105 412.133M325 37.4667L390 74.9333M325 37.4667L390 7.62261e-05L455 37.4667M1105 487.067L1170 524.533M1105 487.067L1170 449.6M390 74.9333L455 112.4M390 74.9333L455 37.4667M1170 524.533L1235 562M1170 524.533L1235 487.067M455 112.4L520 149.867M455 112.4L520 74.9334M520 149.867L585 187.333M520 149.867L585 112.4M585 187.333L650 224.8M585 187.333L650 149.867M650 224.8L715 262.267M650 224.8L715 187.333M715 262.267L780 299.733M715 262.267L780 224.8M780 299.733L845 337.2M780 299.733L845 262.267M845 337.2L910 299.733M975 337.2L1040 374.667M975 337.2L910 299.733M975 337.2L1040 299.733M1040 374.667L1105 412.133M1040 374.667L1105 337.2M1105 412.133L1170 449.6M1105 412.133L1170 374.667M1170 449.6L1235 487.067M1170 449.6L1235 412.133M455 37.4667L520 74.9334M455 37.4667L520 1.52452e-05L585 37.4667M1235 487.067L1300 524.533M1235 487.067L1300 449.6L1235 412.133M520 74.9334L585 112.4M520 74.9334L585 37.4667M585 112.4L650 149.867M585 112.4L650 74.9333M650 149.867L715 187.333M650 149.867L715 112.4M715 187.333L780 224.8M715 187.333L780 149.867M780 224.8L845 262.267M780 224.8L845 187.333M845 262.267L910 299.733M845 262.267L910 224.8M910 299.733L975 262.267M1040 299.733L1105 337.2M1040 299.733L975 262.267M1040 299.733L1105 262.267M1105 337.2L1170 374.667M1105 337.2L1170 299.733M1170 374.667L1235 412.133M1170 374.667L1235 337.2M1235 412.133L1300 374.667L1235 337.2M585 37.4667L650 74.9333M585 37.4667L650 0L715 37.4667M650 74.9333L715 112.4M650 74.9333L715 37.4667M715 112.4L780 149.867M715 112.4L780 74.9333M780 149.867L845 187.333M780 149.867L845 112.4M845 187.333L910 224.8M845 187.333L910 149.867M910 224.8L975 262.267M910 224.8L975 187.333M975 262.267L1040 224.8M3.94762e-05 524.533L65 487.067M65 562L130 524.533M1105 262.267L1170 299.733M1105 262.267L1040 224.8M1105 262.267L1170 224.8M1170 299.733L1235 337.2M1170 299.733L1235 262.267M1235 337.2L1300 299.733L1235 262.267M715 37.4667L780 74.9333M715 37.4667L780 7.62261e-05L845 37.4667M780 74.9333L845 112.4M780 74.9333L845 37.4667M845 112.4L910 149.867M845 112.4L910 74.9334M910 149.867L975 187.333M910 149.867L975 112.4M975 187.333L1040 224.8M975 187.333L1040 149.867M1040 224.8L1105 187.333M65 487.067L4.39498e-05 449.6L65 412.133M65 487.067L130 524.533M65 487.067L130 449.6M130 524.533L195 487.067M1170 224.8L1235 262.267M1170 224.8L1105 187.333M1170 224.8L1235 187.333M1235 262.267L1300 224.8L1235 187.333M845 37.4667L910 74.9334M845 37.4667L910 1.52452e-05L975 37.4667M910 74.9334L975 112.4M910 74.9334L975 37.4667M975 112.4L1040 149.867M975 112.4L1040 74.9333M1040 149.867L1105 187.333M1040 149.867L1105 112.4M1105 187.333L1170 149.867M65 412.133L2.19749e-05 374.667L65 337.2M65 412.133L130 449.6M65 412.133L130 374.667M130 449.6L195 487.067M130 449.6L195 412.133M195 487.067L260 524.533L325 487.067M195 487.067L260 449.6M1235 187.333L1170 149.867M1235 187.333L1300 149.867L1235 112.4M975 37.4667L1040 74.9333M975 37.4667L1040 1.52452e-05L1105 37.4667M1040 74.9333L1105 112.4M1040 74.9333L1105 37.4667M1105 112.4L1170 149.867M1105 112.4L1170 74.9333M1170 149.867L1235 112.4M65 337.2L0 299.733L65 262.267M65 337.2L130 374.667M65 337.2L130 299.733M130 374.667L195 412.133M130 374.667L195 337.2M195 412.133L260 449.6M195 412.133L260 374.667M260 449.6L325 487.067M260 449.6L325 412.133M325 487.067L390 524.533L455 487.067M325 487.067L390 449.6M1105 37.4667L1170 74.9333M1105 37.4667L1170 7.62261e-05L1235 37.4667M1170 74.9333L1235 112.4M1170 74.9333L1235 37.4667M1235 112.4L1300 74.9334L1235 37.4667M65 262.267L130 299.733M130 299.733L195 337.2M195 337.2L260 374.667M260 374.667L325 412.133M325 412.133L390 449.6M390 449.6L455 487.067" stroke="url(#paint1_linear_111_17)" stroke-width="1.5" />
    <defs>
        <radialGradient id="paint0_radial_111_17" cx="0" cy="0" r="1" gradientUnits="userSpaceOnUse" gradientTransform="translate(649.748 392.651) rotate(90) scale(361.678 723.998)">
            <stop stop-color="white" />
            <stop offset="1" stop-color="white" stop-opacity="0" />
        </radialGradient>
        <linearGradient id="paint1_linear_111_17" x1="650" y1="-27.4347" x2="650" y2="-6.06116" gradientUnits="userSpaceOnUse">
            <stop stop-color="#BEF972" stop-opacity="0" />
            <stop offset="0.453125" stop-color="#BEF972" />
            <stop offset="1" stop-color="#BEF972" stop-opacity="0" />
        </linearGradient>
    </defs>
</svg>
    